/* XPM */
static char * jscribble_logo_xpm[] = {
"32 32 236 2",
"  	c None",
". 	c #616161",
"+ 	c #808080",
"@ 	c #777777",
"# 	c #848484",
"$ 	c #959595",
"% 	c #A2A2A2",
"& 	c #C1C1C1",
"* 	c #F1F1F1",
"= 	c #FFFFFF",
"- 	c #F6F6F6",
"; 	c #7D7D7D",
"> 	c #595959",
", 	c #757575",
"' 	c #9A9A9A",
") 	c #CFCFCF",
"! 	c #E6E6E6",
"~ 	c #E7E7E7",
"{ 	c #E8E8E8",
"] 	c #EDEDED",
"^ 	c #FBFBFB",
"/ 	c #FEFEFE",
"( 	c #858585",
"_ 	c #7C7C7C",
": 	c #B8B8B8",
"< 	c #BCBCBC",
"[ 	c #AAAAAA",
"} 	c #D8CEC4",
"| 	c #E6CEB7",
"1 	c #F2DDC9",
"2 	c #F4E4D4",
"3 	c #F2EDE8",
"4 	c #FDFFFF",
"5 	c #FBF8F6",
"6 	c #5D4023",
"7 	c #B25800",
"8 	c #F17903",
"9 	c #F67600",
"0 	c #CB6E13",
"a 	c #DF6900",
"b 	c #F9830F",
"c 	c #DA9046",
"d 	c #D9CABC",
"e 	c #F5FAFF",
"f 	c #CEA072",
"g 	c #F08721",
"h 	c #F37902",
"i 	c #FA7B00",
"j 	c #FC7C00",
"k 	c #F67900",
"l 	c #B25700",
"m 	c #FB7C00",
"n 	c #CF6200",
"o 	c #8D8E8F",
"p 	c #ECF1F7",
"q 	c #CCAC8D",
"r 	c #F08419",
"s 	c #FB7400",
"t 	c #D3873D",
"u 	c #EDDBC9",
"v 	c #FAFBFC",
"w 	c #FAFCFD",
"x 	c #E5CEB7",
"y 	c #DC7713",
"z 	c #FF7C00",
"A 	c #F57D08",
"B 	c #DB7C1F",
"C 	c #B75A00",
"D 	c #D76900",
"E 	c #DE6E00",
"F 	c #F7F7F7",
"G 	c #F5F2F0",
"H 	c #DABA99",
"I 	c #DD740E",
"J 	c #FA7A00",
"K 	c #E29345",
"L 	c #EEEDED",
"M 	c #F7F5F4",
"N 	c #DB9550",
"O 	c #F77A00",
"P 	c #D0863E",
"Q 	c #F1E3D5",
"R 	c #CBCCCE",
"S 	c #C05F00",
"T 	c #FF7F00",
"U 	c #F37800",
"V 	c #EE7500",
"W 	c #EBEBEB",
"X 	c #F7FAFD",
"Y 	c #D4A06D",
"Z 	c #F87D05",
"` 	c #E67404",
" .	c #DCBA99",
"..	c #F9F8F7",
"+.	c #E5CD97",
"@.	c #FF9513",
"#.	c #F67B04",
"$.	c #D0A77F",
"%.	c #A8A8A8",
"&.	c #FA7C00",
"*.	c #CC6500",
"=.	c #F67A00",
"-.	c #C56100",
";.	c #EAEAEA",
">.	c #FEFFFF",
",.	c #EBDDCF",
"'.	c #DA7E25",
").	c #FF7B00",
"!.	c #E5892E",
"~.	c #D9CEC4",
"{.	c #FFFDFF",
"].	c #6D5F20",
"^.	c #EDC459",
"/.	c #E1C7B2",
"(.	c #868686",
"_.	c #D26800",
":.	c #CF6700",
"<.	c #BB5C00",
"[.	c #F7FDFF",
"}.	c #CF9964",
"|.	c #F77C03",
"1.	c #FA7800",
"2.	c #D8AB7F",
"3.	c #F7F5F3",
"4.	c #F0EFED",
"5.	c #F2EDEC",
"6.	c #717171",
"7.	c #D06600",
"8.	c #D06700",
"9.	c #C46000",
"0.	c #F9F9F9",
"a.	c #E5D4C4",
"b.	c #D57719",
"c.	c #FF7A00",
"d.	c #E98727",
"e.	c #E2D9CF",
"f.	c #CB6400",
"g.	c #878787",
"h.	c #F4F2F0",
"i.	c #F6F8FA",
"j.	c #D69556",
"k.	c #EF7200",
"l.	c #D6AE87",
"m.	c #F9F8F8",
"n.	c #CE6500",
"o.	c #D46800",
"p.	c #D86A00",
"q.	c #9D9D9D",
"r.	c #FFFEFE",
"s.	c #DBC4AE",
"t.	c #DE7E20",
"u.	c #EBE9E8",
"v.	c #FBFDFF",
"w.	c #EAD8C6",
"x.	c #DC7A19",
"y.	c #E08730",
"z.	c #DBD1C9",
"A.	c #686868",
"B.	c #D76A00",
"C.	c #CC6400",
"D.	c #D16700",
"E.	c #A2A1A1",
"F.	c #F3EFEB",
"G.	c #D2A071",
"H.	c #F97400",
"I.	c #FB8007",
"J.	c #D3B598",
"K.	c #F4F9FE",
"L.	c #D1985F",
"M.	c #F77C04",
"N.	c #D39D68",
"O.	c #F5EEE8",
"P.	c #B1B1B1",
"Q.	c #BA5C00",
"R.	c #A2A7AC",
"S.	c #F7FBFF",
"T.	c #CCAA89",
"U.	c #F18216",
"V.	c #EEE0D3",
"W.	c #EBDCCC",
"X.	c #D07F2F",
"Y.	c #FE7700",
"Z.	c #F07F11",
"`.	c #D1A173",
" +	c #D9DEE5",
".+	c #DB6C00",
"++	c #F97B00",
"@+	c #B17539",
"#+	c #F1DBC6",
"$+	c #DCBA98",
"%+	c #D49D68",
"&+	c #DC7209",
"*+	c #FF7900",
"=+	c #F07E0F",
"-+	c #CFA173",
";+	c #F8FEFF",
">+	c #D4BAA0",
",+	c #EC8826",
"'+	c #F87B02",
")+	c #EF7000",
"!+	c #C87321",
"~+	c #D66800",
"{+	c #FC7B00",
"]+	c #D66900",
"^+	c #DD6D00",
"/+	c #FF8000",
"(+	c #DC730D",
"_+	c #D9AE84",
":+	c #F5EDE4",
"<+	c #F7F6F6",
"[+	c #F5E8DC",
"}+	c #D6AA80",
"|+	c #D79555",
"1+	c #D79049",
"2+	c #997858",
"3+	c #9B5714",
"4+	c #D39A65",
"5+	c #D9B38E",
"6+	c #D2BFAD",
"7+	c #EEF2F6",
"8+	c #F2F2F3",
"9+	c #ABABAB",
"0+	c #E8EAEC",
"a+	c #C7C7C7",
"b+	c #9B9B9B",
"c+	c #818181",
"d+	c #CDCDCD",
"e+	c #E9E9E9",
"f+	c #4F4F4F",
"g+	c #C8C8C8",
"h+	c #7F7F7F",
"i+	c #B2B2B2",
"j+	c #CECECE",
"k+	c #C9C9C9",
"l+	c #7E7E7E",
"m+	c #6D6D6D",
"                                                                ",
"                                                                ",
"                                                                ",
"                                        . +                     ",
"                          @ # $ % & * = = = - ;                 ",
"          > , ' ) ! ~ { ] ^ = = = = = / = = = - (               ",
"  _ : ! = = = = = = = = = = = = = = = = = = = / *               ",
"    < = = = / = = = = = = = = = = = = = = = = = = [             ",
"      } | 1 2 3 4 = / = = = = = = = = = = = / = = 5 6           ",
"    7 8 9 0 a b c d = = = = = = = = = = = / = e f g h i j k l   ",
"    m n o = p q r s t u v = / = = = = = = w x y z A B C D i k   ",
"  E k     F = = G H I J K L = / = = = / M N O z P Q R     S T   ",
"  U V     W = = / = X Y Z `  ...= / / = +.@.#.$.= = %.      &.*.",
"  =.-.    ;.= = = / = >.,.'.).!.~.= = {.].^./.>./ = (.      _.:.",
"  O <.    ] = = = = = = = [.}.|.1.2.3.4.5.= = / = = 6.      7.8.",
"  k 9.    0.= = = = = = / = >.a.b.c.d.e.= / = = = =         :._.",
"  k f.  g.= = = = = = / = h.= = i.j.|.k.l.m.= / = =         n.o.",
"  k p.  q.= = = = = r.= s.t.u.= = v.w.x.z y.z.= / = A.      B.C.",
"  D.=.  E.= = / = = F.G.H.I.J.= = = = K.L.M.1.N.O.= P.      T Q.",
"    T   R.= = = S.T.U.).'.V.= / = = / = >.W.X.Y.Z.`. +    .+++  ",
"    B.i @+#+$+%+&+*+=+-+;+= = = = = = = / = >.>+,+'+)+!+~+{+]+  ",
"      ^+/+1.*+c.(+_+:+>.= / = = = = = = = = = = <+[+}+|+1+2+    ",
"        3+4+5+6+;+= / = = = = = = = = = = = = = = = = = 7+8+9+  ",
"          0+= = = / = = = = = = = = = = = / = = = a+b+c+        ",
"          d+= / = = = = = = = = = = = / W e+d+;                 ",
"          f+= / = = = = = / = = = g+' h+                        ",
"            i+= = = = / W e+j+_                                 ",
"              ^ = k+' l+                                        ",
"              m+                                                ",
"                                                                ",
"                                                                ",
"                                                                "};
